<?xml version="1.0" encoding="utf-8"?>
<!-- Generator: Adobe Illustrator 26.0.1, SVG Export Plug-In . SVG Version: 6.00 Build 0)  -->
<svg version="1.1" id="Warstwa_1" xmlns="http://www.w3.org/2000/svg" xmlns:xlink="http://www.w3.org/1999/xlink" x="0px" y="0px"
	 viewBox="0 0 383.2 352" style="enable-background:new 0 0 383.2 352;" xml:space="preserve">
<path d="M0,13.9c2.7-6.5,7.6-8.8,14.5-8.6C27,5.7,39.5,5.4,51.9,5.5c15.2,0.1,24.8,7.5,28.8,22.2c3.9,14.6,7.9,29.1,11.7,43.7
	c0.7,2.6,1.7,3.5,4.5,3.6c54.9,0.1,109.8,0.4,164.7,0.6c32.7,0.1,65.4,0.3,98,0.5c16,0.1,26.4,12.7,22.9,28.2
	c-8.9,39.4-18,78.7-27.2,118c-3,13-13.8,21-27.3,21.4c-4.7,0.1-9.5,0-14.2,0c-66.4,0-132.7-0.1-199.1-0.1c-1.7,0-3.5,0-5.2,0.2
	c-6.5,0.7-11.1,5.9-11.1,12.5c0,6.5,4.6,11.7,11.2,12.3c1.7,0.2,3.5,0.1,5.2,0.1c73.1,0,146.2,0,219.3,0c8.9,0,14.2,5.1,13.3,12.8
	c-0.4,3.8-2.3,6.2-7,9.2c7.4,20.2,3.8,37.6-14.5,50.3c-13.2,9.2-31.3,8.4-44.2-1.1c-14.8-10.9-19-26-13-48.4c-23.3,0-46.5,0-69.9,0
	c7,19.9,3.2,37.2-14.6,49.3c-13.9,9.5-29.1,9.4-42.9,0c-17.7-12.1-21.4-29.2-14.5-49.6c-5.4,0-10.4,0.1-15.5,0
	c-18.2-0.3-32.3-12.4-35.1-30c-3-19.1,11.1-37.5,30.3-39.7c0.9-0.1,1.7-0.2,2.8-0.4c-0.3-1.5-0.5-2.8-0.9-4.1
	C92,155.8,75.5,94.7,59.1,33.6c-1.3-4.9-2.2-5.6-7.2-5.6c-12.5,0-24.9-0.2-37.4,0.1C7.5,28.2,2.6,25.8,0,19.2C0,17.4,0,15.7,0,13.9z
	 M113.2,148.3c14.6,0,28.9,0,43.5,0c-0.1-1.7-0.2-3.2-0.4-4.6c-1.9-14.2-3.9-28.4-5.6-42.6c-0.3-2.8-1.2-3.5-3.9-3.5
	c-13.7,0-27.4-0.1-41.1-0.2c-1.9,0-3.9,0-6.2,0C104.1,114.8,108.7,131.5,113.2,148.3z M245.1,148.1c0.6,0.1,1.1,0.3,1.6,0.3
	c12.8,0,25.7,0,38.5,0.1c2.5,0,2.8-1.2,3.1-3.2c1.1-9,2.4-18,3.5-27c0.9-6.6,1.7-13.2,2.5-20.1c-16.7,0-33,0-49.2,0
	C245.1,115,245.1,131.5,245.1,148.1z M222.2,98c-16.7,0-32.9,0-49.4,0c2.3,17,4.5,33.7,6.7,50.2c14.6,0,28.6,0,42.7,0
	C222.2,131.4,222.2,114.8,222.2,98z M360.9,98.3c-14.2,0-27.9-0.1-41.6,0.1c-0.9,0-2.3,1.6-2.5,2.6c-1.4,9-2.5,18-3.7,27
	c-0.9,6.6-1.7,13.3-2.6,20.2c13.2,0,25.9,0,38.9,0C353.1,131.7,356.9,115.4,360.9,98.3z M119.3,171c4.3,15.8,8.3,30.9,12.5,46
	c0.9,3,3.4,4.1,6.4,4.2c4.6,0.1,9.2,0,13.8,0c4.7,0,9.4,0,14.2,0c-0.1-1.6,0-2.8-0.2-3.9c-1.5-11.6-3-23.2-4.6-34.8
	c-0.5-3.8-0.1-9-2.3-10.9c-2.3-1.9-7.4-0.7-11.2-0.7C138.6,170.9,129.3,171,119.3,171z M284.7,171.2c-13.6,0-26.5,0-39.5,0
	c0,16.7,0,33.2,0,50c10.6,0,20.9,0.1,31.2-0.1c0.7,0,1.9-1.6,2.1-2.6c1.1-7,2-14,2.9-21.1C282.4,188.7,283.5,180.1,284.7,171.2z
	 M222.2,221c0-16.7,0-33.2,0-49.8c-13.2,0-26.2,0-39.6,0c2.2,16.8,4.4,33.2,6.6,49.8C200.4,221,211.2,221,222.2,221z M344,171.2
	c-12.4,0-24.3,0-36.6,0c-2.2,16.6-4.4,33.1-6.6,49.9c9.5,0,18.5,0.1,27.6-0.1c3.3-0.1,4.8-2.6,5.5-5.7c2-9,4.1-18,6.1-26.9
	C341.3,182.8,342.6,177.1,344,171.2z M162.8,324.8c9.3,0,16.9-7.7,16.8-16.9c-0.1-9.1-7.7-16.6-16.8-16.7
	c-9.2-0.1-16.9,7.5-16.9,16.9C145.9,317.4,153.3,324.8,162.8,324.8z M304.5,324.8c9.4,0.1,16.9-7.3,17-16.7c0-9.3-7.6-17-16.8-17
	c-9.1,0-16.6,7.5-16.8,16.6C287.7,317.1,295.1,324.7,304.5,324.8z"/>
</svg>
