<?xml version="1.0" encoding="utf-8"?>
<!-- Generator: Adobe Illustrator 26.0.1, SVG Export Plug-In . SVG Version: 6.00 Build 0)  -->
<svg version="1.1" id="Warstwa_1" xmlns="http://www.w3.org/2000/svg" xmlns:xlink="http://www.w3.org/1999/xlink" x="0px" y="0px"
	 viewBox="0 0 356.1 356.1" style="enable-background:new 0 0 356.1 356.1;" xml:space="preserve">
<path d="M3,178.2C3.3,81,82.2,2.4,179.2,2.6c96.5,0.2,175.7,79.6,175.3,175.9c-0.4,97.9-79.5,176.1-177.8,175.6
	C81.3,353.6,2.7,274.1,3,178.2z M35,178.1c0,79.4,64.1,143.9,143.2,144c79.7,0.1,144.4-64.4,144.3-144.1
	C322.5,99.1,258,34.6,179.1,34.6C99.6,34.6,35,98.9,35,178.1z"/>
<path d="M163.3,204.1c8.1-7.4,16.1-14.8,24.1-22.1c19.9-18.2,39.7-36.4,59.6-54.6c3.8-3.5,8.1-5.5,13.2-4.8
	c6.7,0.8,11.4,4.4,13.5,10.8c2.1,6.4,0.6,12.2-4.3,16.7c-11.6,10.8-23.3,21.4-35,32.1c-19.8,18.1-39.5,36.3-59.4,54.3
	c-2.6,2.3-5.9,4.3-9.2,5.2c-5.4,1.4-10.4-0.3-14.4-4.3c-16-16-32-31.9-47.9-47.9c-6.6-6.7-6.5-16.4-0.1-22.8
	c6.2-6.2,16-6.2,22.5,0.2c11.5,11.3,22.8,22.7,34.2,34.1C161.2,202.1,162.2,203,163.3,204.1z"/>
</svg>
