<?xml version="1.0" encoding="utf-8"?>
<!-- Generator: Adobe Illustrator 26.0.1, SVG Export Plug-In . SVG Version: 6.00 Build 0)  -->
<svg version="1.1" id="Warstwa_1" xmlns="http://www.w3.org/2000/svg" xmlns:xlink="http://www.w3.org/1999/xlink" x="0px" y="0px"
	 viewBox="0 0 395 303" style="enable-background:new 0 0 395 303;" xml:space="preserve">
<path d="M6,232.2c2.7-6.8,7.6-9.7,14.9-9.3c5.4,0.3,10.9,0.1,17,0.1c0-1.9,0-3.5,0-5c0-57.1,0.1-114.3,0-171.4
	c0-14.1,4.9-25.5,16.3-33.9C60.4,8,67.5,5.4,75.4,5.4c81.5-0.1,162.9-0.2,244.4,0.1c16.4,0.1,28.2,8.8,34.5,23.8
	c2.3,5.4,3,11.9,3.1,17.9c0.2,56.9,0.1,113.8,0.1,170.7c0,1.6,0,3.2,0,5.2c6.3,0,12.1,0,18,0c9.4,0,13.9,4.6,13.9,14.1
	c0,9.5,0,19,0,28.4c0,19.1-12.7,31.9-31.9,32c-38.5,0.1-77.1,0-115.6,0c-67.6,0-135.2-0.1-202.8,0c-12.2,0-22-4.2-28.4-14.7
	c-2-3.3-3-7.3-4.5-10.9C6,258.7,6,245.4,6,232.2z M333.3,222.8c0-1.6,0-2.9,0-4.1c0-57.5,0-115,0-172.5c0-11.3-5.7-16.9-17.1-16.9
	c-79.1,0-158.1,0-237.2,0c-11.5,0-17.1,5.6-17.1,17.2c0,57.4,0,114.7,0,172.1c0,1.3,0,2.6,0,4.2
	C152.5,222.8,242.6,222.8,333.3,222.8z M30.5,247c-0.3,0.8-0.4,1-0.4,1.2c0,5.1-0.1,10.2-0.1,15.3c0,8.4,1.5,9.9,9.7,9.9
	c105.3,0,210.6,0,315.9,0c1.2,0,2.5,0,3.7,0c3.1-0.2,5.5-2.1,5.7-5c0.4-7,0.1-14.1,0.1-21.2c-0.9-0.1-1.4-0.2-1.8-0.2
	c-41.4,0-82.8,0-124.2,0c-1.9,0-2.8,0.7-3.5,2.5c-2,4.9-5.9,7.4-11.1,7.4c-17.8,0.1-35.7,0.1-53.5,0c-4.9,0-8.9-2.2-10.8-6.7
	c-1.1-2.9-2.8-3.1-5.4-3.1c-40.2,0.1-80.3,0-120.5,0C33,247,31.8,247,30.5,247z"/>
<path d="M213.1,182.2c-10.2,0-19.8,0-29.9,0c0-19.7,0-39.3,0-59.5c-10.2,0-19.9,0-29.9,0c0-10.3,0-19.9,0-29.9c29.6,0,59.4,0,89.5,0
	c0,9.8,0,19.5,0,29.1c-12.5,1-22-6.2-29.6-23.1C213.1,127.5,213.1,154.7,213.1,182.2z"/>
</svg>
